<svg height="117.656" width="860.297" xmlns="http://www.w3.org/2000/svg"><path fill-rule="evenodd" d="M0 116.016h18.203V35.859h.547l32.5 80.157h13.672l32.5-80.157h.625v80.157h18.125V3.28H92.89L58.359 89.375h-.547L23.282 3.281H0zM154.162 117.422c10.938 0 20.157-5.469 24.922-14.14h.47v12.734h19.452V59.062c0-16.64-13.36-27.578-34.062-27.578-21.016 0-33.75 11.016-34.922 25.703l-.078.938h18.047l.156-.703c1.25-6.094 6.875-10.39 16.094-10.39 9.843 0 15.312 5.077 15.312 13.437v5.703l-21.64 1.328c-20.079 1.25-31.485 10.078-31.485 24.766v.156c0 14.766 11.172 25 27.734 25zm-8.359-25.781v-.079c0-6.562 5.234-10.703 14.844-11.328l18.906-1.171v6.25c0 9.843-8.437 17.265-19.61 17.265-8.515 0-14.14-4.14-14.14-10.937zM248.794 117.656c20.937 0 34.922-13.125 36.406-30.39l.078-.547h-18.36l-.156.703c-1.796 8.672-8.046 14.531-17.89 14.531-12.266 0-20.235-10-20.235-27.266v-.078c0-16.953 7.891-27.343 20.157-27.343 10.312 0 16.25 6.484 17.89 14.53l.157.704H285.2l-.078-.625c-1.172-16.563-14.766-30.39-36.563-30.39-24.14 0-39.765 16.562-39.765 42.968v.078c0 26.563 15.39 43.125 40 43.125zM296.394 116.016h47.265c24.063 0 38.672-12.188 38.672-31.875v-.157c0-14.843-10.781-25.937-26.64-27.343v-.391c12.109-1.64 21.25-12.5 21.25-24.61v-.156c0-17.109-13.203-28.203-33.75-28.203h-46.797zm41.719-97.032c11.953 0 18.906 5.47 18.906 15.235v.156c0 10.625-7.813 16.563-22.344 16.563H316.55V18.983zm-.235 46.563c15.781 0 23.906 5.937 23.906 17.266v.156c0 11.328-7.968 17.344-22.734 17.344h-22.5V65.547zM428.994 117.656c24.297 0 40.078-16.172 40.078-43.047v-.156c0-26.719-16.016-42.969-40.156-42.969-24.063 0-40 16.407-40 42.97v.155c0 26.797 15.703 43.047 40.078 43.047zm.078-15.703c-12.422 0-20.313-9.922-20.313-27.344v-.156c0-17.187 8.047-27.187 20.157-27.187 12.343 0 20.312 9.922 20.312 27.187v.156c0 17.344-7.89 27.344-20.156 27.344zM515.813 117.656c24.296 0 40.078-16.172 40.078-43.047v-.156c0-26.719-16.016-42.969-40.157-42.969-24.062 0-40 16.407-40 42.97v.155c0 26.797 15.704 43.047 40.079 43.047zm.078-15.703c-12.422 0-20.313-9.922-20.313-27.344v-.156c0-17.187 8.047-27.187 20.156-27.187 12.344 0 20.313 9.922 20.313 27.187v.156c0 17.344-7.89 27.344-20.156 27.344zM566.85 116.016h19.453v-28.75l6.563-6.875 26.171 35.625h22.422l-34.14-47.188 32.812-35.625h-22.5l-30.937 34.375h-.39V3.281H566.85zM670.331 116.016h21.094l9.531-29.141h41.953l9.532 29.14h21.171L733.3 3.282h-22.656zm51.406-92.657h.47l15.624 47.97h-31.797zM791.525 21.328c6.094 0 10.781-4.844 10.781-10.625C802.306 4.766 797.62 0 791.525 0s-10.86 4.766-10.86 10.703c0 5.781 4.766 10.625 10.86 10.625zm-9.766 94.688h19.453V33.203H781.76zM815.297 116.016h19.453V67.969c0-12.266 6.64-19.219 17.656-19.219 3.281 0 6.25.469 7.89 1.094V32.266a25.342 25.342 0 00-6.171-.782c-9.531 0-16.406 6.016-18.984 16.016h-.391V33.203h-19.453z"/></svg>
